<svg width="333" height="90" viewBox="0 0 333 90" fill="none" xmlns="http://www.w3.org/2000/svg">
<path d="M36.2391 79.0752C28.3254 79.1677 20.411 79.0959 12.4979 79.179C7.74661 79.229 4.16911 77.184 1.56098 73.3409C0.161607 71.279 -0.148393 68.9115 0.0578571 66.4709C0.279107 63.8584 0.529107 61.249 0.764732 58.6378C0.974732 56.3153 1.18411 53.9921 1.38973 51.669C1.58223 49.4896 1.76286 47.309 1.96098 45.1303C2.19661 42.5371 2.45473 39.9465 2.68723 37.3528C2.89098 35.0834 3.07286 32.8121 3.26348 30.5415C3.48911 27.8565 3.61911 25.1596 3.96473 22.4903C4.30286 19.8803 5.70536 17.809 7.74723 16.1671C9.22723 14.9771 10.8691 14.119 12.7629 13.8515C13.9266 13.6871 15.1066 13.6709 16.2847 13.6815C17.2316 13.6903 17.2497 13.6378 17.2804 12.7115C17.471 6.92025 21.3297 1.37463 28.1016 0.182754C35.4529 -1.111 41.8729 4.669 42.6791 11.0509C42.756 11.6603 42.8247 12.2728 42.8629 12.8853C42.9116 13.6734 42.8991 13.6709 43.6635 13.6865C45.5097 13.724 47.356 13.7565 49.201 13.8121C50.221 13.8428 51.2279 13.9865 52.1354 14.4946C54.0804 15.5834 54.9429 17.2671 54.7104 19.4678C54.471 21.7321 54.181 23.9921 53.8754 26.249C53.5972 28.3065 52.3647 29.3684 50.2622 29.3834C47.0022 29.4065 43.741 29.3571 40.4829 29.4303C36.9516 29.5096 33.4197 29.459 29.891 29.5446C27.7735 29.5965 25.6579 29.5703 23.5416 29.5715C22.2554 29.5721 21.0091 30.5428 20.6672 31.8159C20.316 33.1246 20.8147 34.3515 22.0166 35.2171C23.026 35.944 24.1566 36.1753 25.3629 36.0628C26.2491 35.9803 27.1354 35.9871 28.0216 35.979C32.4579 35.9371 36.8941 35.8646 41.3297 35.8846C44.2272 35.8978 47.0197 36.5215 49.5747 37.9284C54.0485 40.3915 56.6022 44.2353 57.4135 49.2378C57.6072 50.4321 57.4341 51.6571 57.3129 52.8665C57.1254 54.7378 56.9704 56.6121 56.8004 58.4846C56.596 60.7359 56.3816 62.9859 56.1885 65.2384C56.0835 66.464 55.9891 67.6915 55.7722 68.9027C55.411 70.9227 54.4279 72.669 53.0929 74.1665C51.0235 76.4878 48.4647 78.0909 45.3985 78.7896C44.5522 78.9821 43.6866 79.0778 42.8141 79.0771C40.6229 79.0752 38.431 79.0771 36.2397 79.0771L36.2391 79.0752ZM32.6272 73.3959V73.3703C35.0004 73.3703 37.3729 73.3703 39.746 73.3703C40.3072 73.3703 40.8647 73.3471 41.4222 73.2528C44.5035 72.7309 47.2954 70.0696 47.6797 67.0878C48.0285 64.3809 48.2197 61.654 48.4716 58.9346C48.6797 56.684 48.8591 54.4303 49.081 52.1809C49.3004 49.9565 48.7935 47.9321 47.4529 46.1446C45.5047 43.5465 42.8191 42.4046 39.6391 42.349C34.6966 42.2628 29.7522 42.5778 24.8104 42.3378C21.9654 42.1996 19.5916 40.9921 17.7622 38.8428C15.0766 35.6865 15.2347 30.4546 18.0116 27.3815C19.201 26.0653 20.6172 25.1553 22.4254 25.114C26.8235 25.0134 31.2235 24.9534 35.6229 24.9109C38.031 24.8878 40.4404 24.9328 42.8491 24.9478C44.6416 24.959 46.4347 25.0021 48.2266 24.969C49.2322 24.9509 49.8097 24.529 49.9341 23.7609C50.1397 22.4946 50.3229 21.2203 50.4185 19.9421C50.5079 18.7503 49.846 18.1146 48.6647 18.099C45.876 18.0628 43.0872 18.0409 40.2985 18.0209C31.8585 17.9596 23.4172 17.9515 14.9785 18.1078C11.3504 18.1753 8.76098 20.6084 8.14161 24.034C7.67223 26.6309 7.59786 29.2846 7.35036 31.9134C7.17723 33.7496 7.03661 35.589 6.87036 37.4265C6.63598 40.0203 6.38723 42.6121 6.15223 45.2059C5.98411 47.0615 5.82598 48.9178 5.66661 50.774C5.46411 53.1346 5.26473 55.4953 5.06536 57.8559C4.93161 59.4415 4.75973 61.0259 4.67848 62.6146C4.59911 64.1634 4.28786 65.6984 4.49911 67.2684C4.81161 69.5921 5.91661 71.3303 8.01223 72.4228C9.47973 73.1884 11.066 73.4478 12.6866 73.4553C16.761 73.4753 20.8354 73.504 24.9104 73.4059C27.481 73.344 30.0541 73.3946 32.6266 73.3946L32.6272 73.3959ZM35.6441 13.6103C36.571 13.6103 37.2229 13.6028 37.8741 13.6134C38.2104 13.619 38.3766 13.4965 38.3685 13.1396C38.356 12.5796 38.406 12.019 38.3179 11.4603C37.5847 6.80463 33.656 3.8515 29.1666 4.304C26.7285 4.54963 24.6972 5.589 23.2385 7.604C22.0816 9.20213 21.5797 11.0415 21.3785 12.9753C21.3072 13.659 21.3341 13.6853 22.0247 13.684C26.6566 13.6746 31.2885 13.7478 35.6447 13.6103H35.6441Z" fill="url(#paint0_linear_2535_205)"/>
<path d="M27.4216 55.6546C31.9854 55.6546 36.5497 55.6602 41.1135 55.6502C42.076 55.6484 42.8179 55.989 43.2097 56.894C43.6079 57.8127 43.5291 58.6921 42.8779 59.4909C42.4316 60.0384 41.8141 60.1627 41.1697 60.1577C38.7985 60.1384 36.4272 60.0727 34.056 60.0677C27.246 60.0534 20.4366 60.0602 13.6266 60.0584C12.476 60.0584 11.6254 59.1696 11.5847 57.9259C11.5441 56.6915 12.4172 55.6584 13.5697 55.649C16.2497 55.6271 18.9304 55.6359 21.611 55.6334C23.5479 55.6321 25.4854 55.6334 27.4222 55.6334V55.6546H27.4216Z" fill="url(#paint1_radial_2535_205)"/>
<path d="M26.7111 67.8727C22.1661 67.8727 17.6217 67.8746 13.0767 67.8715C11.9617 67.8709 11.3305 67.489 10.9998 66.6402C10.643 65.724 10.8886 64.6577 11.5992 63.9965C11.9386 63.6809 12.3398 63.5671 12.7923 63.5696C13.8605 63.5746 14.9292 63.5746 15.9973 63.5727C23.0036 63.5609 30.0092 63.3971 37.0161 63.5059C38.2648 63.5252 39.513 63.5596 40.7617 63.5671C41.2105 63.5696 41.5636 63.7321 41.873 64.0427C42.613 64.784 42.7905 66.0471 42.2748 66.9584C41.8973 67.6252 41.3223 67.8884 40.5636 67.8865C35.9461 67.8752 31.3292 67.8809 26.7117 67.8809V67.8727H26.7111Z" fill="url(#paint2_radial_2535_205)"/>
<path d="M36.1655 52.3254C28.9955 52.2166 21.8255 52.2216 14.6555 52.2172C13.4705 52.2166 12.5967 50.9622 12.858 49.6522C13.0973 48.4541 13.9761 47.7135 15.1948 47.7366C24.048 47.9022 32.9023 47.791 41.7555 47.8122C42.9742 47.8154 43.9886 48.9747 43.8405 50.1941C43.693 51.4072 42.7223 52.3079 41.4886 52.321C39.7142 52.3397 37.9392 52.326 36.1648 52.326L36.1655 52.3254Z" fill="url(#paint3_radial_2535_205)"/>
<path d="M105.634 38.0327C105.437 36.0441 104.591 34.4992 103.095 33.3981C101.6 32.297 99.5699 31.7464 97.0061 31.7464C95.264 31.7464 93.7931 31.9929 92.5933 32.486C91.3936 32.9626 90.4733 33.6282 89.8323 34.4828C89.2078 35.3374 88.8955 36.307 88.8955 37.3917C88.8627 38.2956 89.0517 39.0845 89.4625 39.7583C89.8898 40.4321 90.4733 41.0156 91.2128 41.5086C91.9524 41.9852 92.807 42.4043 93.7766 42.7659C94.7463 43.111 95.7817 43.4068 96.8828 43.6533L101.419 44.738C103.621 45.2311 105.642 45.8885 107.483 46.7102C109.324 47.5319 110.918 48.5427 112.266 49.7424C113.613 50.9421 114.657 52.3555 115.396 53.9825C116.152 55.6096 116.539 57.4749 116.555 59.5786C116.539 62.6683 115.75 65.3471 114.189 67.6151C112.644 69.8667 110.409 71.617 107.483 72.866C104.574 74.0986 101.065 74.7149 96.9568 74.7149C92.8809 74.7149 89.3311 74.0904 86.3071 72.8414C83.2995 71.5923 80.9494 69.7434 79.2566 67.2946C77.5802 64.8294 76.701 61.7808 76.6188 58.1487H86.948C87.0631 59.8415 87.5479 61.2549 88.4025 62.3889C89.2735 63.5064 90.4322 64.3528 91.8784 64.928C93.3411 65.4868 94.9928 65.7662 96.8335 65.7662C98.6413 65.7662 100.211 65.5033 101.542 64.9774C102.89 64.4514 103.933 63.7201 104.673 62.7833C105.412 61.8465 105.782 60.7701 105.782 59.5539C105.782 58.4199 105.445 57.4667 104.771 56.6943C104.114 55.9218 103.144 55.2644 101.863 54.7221C100.597 54.1798 99.044 53.6867 97.2033 53.243L91.7059 51.8625C87.4493 50.8271 84.0884 49.2083 81.6232 47.006C79.158 44.8038 77.9336 41.8373 77.95 38.1066C77.9336 35.0498 78.7471 32.3791 80.3906 30.0947C82.0505 27.8103 84.3267 26.0271 87.2192 24.7452C90.1117 23.4633 93.3986 22.8224 97.08 22.8224C100.827 22.8224 104.098 23.4633 106.892 24.7452C109.702 26.0271 111.888 27.8103 113.449 30.0947C115.01 32.3791 115.816 35.0251 115.865 38.0327H105.634ZM147.82 57.8776V36.1345H158.322V74H148.239V67.1221H147.845C146.99 69.3408 145.569 71.1239 143.58 72.4716C141.608 73.8192 139.2 74.493 136.357 74.493C133.826 74.493 131.599 73.9178 129.676 72.7674C127.753 71.617 126.25 69.9817 125.165 67.8616C124.097 65.7416 123.554 63.2024 123.538 60.2442V36.1345H134.04V58.3706C134.056 60.6057 134.656 62.3725 135.839 63.6708C137.022 64.9691 138.608 65.6183 140.597 65.6183C141.862 65.6183 143.046 65.3307 144.147 64.7555C145.248 64.1638 146.136 63.2928 146.809 62.1424C147.5 60.9919 147.837 59.5703 147.82 57.8776ZM177.224 52.109V74H166.722V23.5126H176.928V42.8152H177.372C178.226 40.5801 179.607 38.8298 181.513 37.5643C183.42 36.2824 185.811 35.6414 188.687 35.6414C191.317 35.6414 193.609 36.2166 195.565 37.3671C197.537 38.5011 199.065 40.1363 200.15 42.2728C201.251 44.3929 201.794 46.9321 201.777 49.8903V74H191.275V51.7639C191.292 49.4301 190.7 47.6141 189.501 46.3158C188.317 45.0174 186.657 44.3682 184.521 44.3682C183.091 44.3682 181.826 44.6723 180.724 45.2804C179.64 45.8885 178.785 46.7759 178.161 47.9428C177.552 49.0932 177.24 50.482 177.224 52.109ZM220.839 74.7149C218.424 74.7149 216.271 74.2958 214.381 73.4577C212.491 72.6031 210.995 71.3458 209.894 69.6859C208.809 68.0096 208.267 65.9223 208.267 63.4243C208.267 61.3206 208.653 59.5539 209.426 58.1241C210.198 56.6943 211.25 55.5438 212.581 54.6728C213.912 53.8018 215.424 53.1444 217.117 52.7006C218.826 52.2569 220.618 51.9446 222.491 51.7639C224.693 51.5338 226.468 51.3201 227.816 51.1229C229.164 50.9093 230.141 50.597 230.75 50.1861C231.358 49.7753 231.662 49.1672 231.662 48.3619V48.214C231.662 46.6527 231.169 45.4447 230.183 44.5901C229.213 43.7355 227.832 43.3082 226.041 43.3082C224.151 43.3082 222.647 43.7273 221.53 44.5655C220.412 45.3872 219.673 46.4226 219.311 47.6716L209.598 46.8828C210.091 44.5819 211.061 42.5933 212.507 40.917C213.953 39.2242 215.819 37.9258 218.103 37.0219C220.404 36.1016 223.066 35.6414 226.09 35.6414C228.194 35.6414 230.207 35.8879 232.13 36.381C234.069 36.874 235.787 37.6382 237.282 38.6736C238.794 39.709 239.986 41.0402 240.857 42.6673C241.728 44.2779 242.163 46.2089 242.163 48.4605V74H232.204V68.7491H231.908C231.3 69.9324 230.487 70.976 229.468 71.8799C228.449 72.7674 227.224 73.4659 225.794 73.9753C224.365 74.4684 222.713 74.7149 220.839 74.7149ZM223.847 67.4672C225.392 67.4672 226.756 67.1632 227.939 66.5551C229.123 65.9306 230.051 65.0924 230.725 64.0406C231.399 62.9888 231.736 61.7972 231.736 60.466V56.4477C231.407 56.6614 230.955 56.8586 230.38 57.0394C229.821 57.2037 229.188 57.3599 228.482 57.5078C227.775 57.6393 227.068 57.7625 226.361 57.8776C225.655 57.9762 225.014 58.0666 224.439 58.1487C223.206 58.3295 222.13 58.6171 221.209 59.0116C220.289 59.406 219.574 59.9401 219.064 60.6139C218.555 61.2713 218.3 62.0931 218.3 63.0791C218.3 64.509 218.818 65.6019 219.853 66.3579C220.905 67.0974 222.236 67.4672 223.847 67.4672ZM260.813 23.5126V74H250.311V23.5126H260.813ZM280.023 74.7149C277.607 74.7149 275.454 74.2958 273.564 73.4577C271.674 72.6031 270.178 71.3458 269.077 69.6859C267.993 68.0096 267.45 65.9223 267.45 63.4243C267.45 61.3206 267.836 59.5539 268.609 58.1241C269.381 56.6943 270.433 55.5438 271.764 54.6728C273.096 53.8018 274.608 53.1444 276.3 52.7006C278.01 52.2569 279.801 51.9446 281.674 51.7639C283.877 51.5338 285.652 51.3201 286.999 51.1229C288.347 50.9093 289.325 50.597 289.933 50.1861C290.541 49.7753 290.845 49.1672 290.845 48.3619V48.214C290.845 46.6527 290.352 45.4447 289.366 44.5901C288.396 43.7355 287.016 43.3082 285.224 43.3082C283.334 43.3082 281.831 43.7273 280.713 44.5655C279.596 45.3872 278.856 46.4226 278.494 47.6716L268.781 46.8828C269.275 44.5819 270.244 42.5933 271.69 40.917C273.137 39.2242 275.002 37.9258 277.286 37.0219C279.587 36.1016 282.25 35.6414 285.274 35.6414C287.377 35.6414 289.391 35.8879 291.313 36.381C293.253 36.874 294.97 37.6382 296.466 38.6736C297.978 39.709 299.169 41.0402 300.04 42.6673C300.911 44.2779 301.347 46.2089 301.347 48.4605V74H291.387V68.7491H291.092C290.483 69.9324 289.67 70.976 288.651 71.8799C287.632 72.7674 286.408 73.4659 284.978 73.9753C283.548 74.4684 281.896 74.7149 280.023 74.7149ZM283.03 67.4672C284.575 67.4672 285.939 67.1632 287.123 66.5551C288.306 65.9306 289.234 65.0924 289.908 64.0406C290.582 62.9888 290.919 61.7972 290.919 60.466V56.4477C290.59 56.6614 290.138 56.8586 289.563 57.0394C289.004 57.2037 288.372 57.3599 287.665 57.5078C286.958 57.6393 286.252 57.7625 285.545 57.8776C284.838 57.9762 284.197 58.0666 283.622 58.1487C282.389 58.3295 281.313 58.6171 280.393 59.0116C279.472 59.406 278.757 59.9401 278.248 60.6139C277.738 61.2713 277.484 62.0931 277.484 63.0791C277.484 64.509 278.001 65.6019 279.037 66.3579C280.089 67.0974 281.42 67.4672 283.03 67.4672ZM329.635 36.1345V44.0231H306.832V36.1345H329.635ZM312.009 27.0625H322.511V62.3642C322.511 63.3339 322.659 64.0899 322.954 64.6322C323.25 65.1581 323.661 65.5279 324.187 65.7416C324.729 65.9552 325.354 66.062 326.06 66.062C326.554 66.062 327.047 66.021 327.54 65.9388C328.033 65.8402 328.411 65.7662 328.674 65.7169L330.325 73.5316C329.799 73.696 329.06 73.885 328.107 74.0986C327.153 74.3287 325.995 74.4684 324.631 74.5177C322.1 74.6163 319.881 74.2794 317.975 73.507C316.085 72.7345 314.614 71.5348 313.562 69.9078C312.51 68.2807 311.992 66.2264 312.009 63.7448V27.0625Z" fill="#3F4A5C"/>
<defs>
<linearGradient id="paint0_linear_2535_205" x1="-2.56152" y1="19.4484" x2="24.8297" y2="42.524" gradientUnits="userSpaceOnUse">
<stop stop-color="#001373"/>
<stop offset="1" stop-color="#007DF6"/>
</linearGradient>
<radialGradient id="paint1_radial_2535_205" cx="0" cy="0" r="1" gradientUnits="userSpaceOnUse" gradientTransform="translate(-14.8653 31.5627) scale(73.98 73.98)">
<stop stop-color="#00D1FF"/>
<stop offset="1" stop-color="#0053FF"/>
</radialGradient>
<radialGradient id="paint2_radial_2535_205" cx="0" cy="0" r="1" gradientUnits="userSpaceOnUse" gradientTransform="translate(-14.8652 31.5627) scale(73.98 73.98)">
<stop stop-color="#00D1FF"/>
<stop offset="1" stop-color="#0053FF"/>
</radialGradient>
<radialGradient id="paint3_radial_2535_205" cx="0" cy="0" r="1" gradientUnits="userSpaceOnUse" gradientTransform="translate(-14.8652 31.5629) scale(73.98 73.98)">
<stop stop-color="#00D1FF"/>
<stop offset="1" stop-color="#0053FF"/>
</radialGradient>
</defs>
</svg>
